<svg xmlns="http://www.w3.org/2000/svg" viewBox="0 0 608.02 84.71" width="150" height="22" class="StyledLogo-kZCwda dJVNk"><defs><linearGradient id="a" x1="173.1" x2="149.97" y1="-526.92" y2="-526.92" gradientTransform="translate(-177.58 516.99)" gradientUnits="userSpaceOnUse"><stop offset="0" stop-color="#ac0"></stop><stop offset="0.6" stop-color="#7fbf00"></stop><stop offset="0.97" stop-color="#4c9727"></stop></linearGradient><linearGradient id="b" x2="106.36" y1="48.72" y2="48.72" gradientUnits="userSpaceOnUse"><stop offset="0.11" stop-color="#4c9727"></stop><stop offset="0.43" stop-color="#7fbf00"></stop><stop offset="1" stop-color="#ac0"></stop></linearGradient><style>.e{fill:#fff}</style></defs><g style="isolation: isolate;"><path d="M39 16.11a9.73 9.73 0 0 0 8-9.74 10.47 10.47 0 0 0-8.42 9.57C39 12.51 37.4 9.06 35 6.57S24.19-.21 24.41.47c.53 1.62-.24 7.11 4.33 10.85 2.71 2.23 6.33 3 9.7 3.94" style="fill: url(&quot;#a&quot;);"></path><path d="M101.36 19s-15.76-5.26-48.69-5.26S5 18.88 5 18.88a7.62 7.62 0 0 0-5 6.54V72a7.41 7.41 0 0 0 5 6.43s16.25 5.26 47.65 5.26 48.65-5.32 48.65-5.32a7.31 7.31 0 0 0 5-6.37V25.42a7.48 7.48 0 0 0-4.94-6.42Z" style="fill: url(&quot;#b&quot;);"></path><path d="M95.89 48.85c0-8.93-7.32-15.2-17.66-15.2-7.7 0-13.57 3.13-16.36 8.1-2.65-5.29-8.59-8.65-16.16-8.65-10.9 0-18.15 6.26-18.15 15.2s7 15.13 17.8 15.13a20.8 20.8 0 0 0 11.56-3.17 12.15 12.15 0 0 0-.61 3.86c0 7.34 5.68 12.33 14.52 12.33 8.6 0 14.68-5 14.68-12.33a12 12 0 0 0-.07-1.35c6.38-2.22 10.45-7.32 10.45-13.92Zm-44.62 6.28a6.53 6.53 0 0 1-6.61-6.83c0-4.15 2.67-7 6.61-7a6.5 6.5 0 0 1 6.62 6.83 6.72 6.72 0 0 1-6.62 7ZM81 64a5.46 5.46 0 0 1-5.39 5.73 5.33 5.33 0 0 1-5.4-5.56 6.73 6.73 0 0 1 .12-1.29A23.36 23.36 0 0 0 77.88 64a24.77 24.77 0 0 0 3.15-.2c-.03.04-.03.09-.03.2Zm2.75-8.27a6.87 6.87 0 0 1-2.15-.34 13 13 0 0 0-2.88-1.94 6.94 6.94 0 0 1-1.58-4.55c0-4.15 2.67-7 6.61-7a6.48 6.48 0 0 1 6.61 6.82 6.71 6.71 0 0 1-6.57 6.96Z" style="mix-blend-mode: multiply; opacity: 0.1;"></path><path d="M94.24 45c0-8.94-7.31-15.2-17.66-15.2-7.69 0-13.56 3.12-16.36 8.1-2.64-5.3-8.59-8.65-16.15-8.65-10.91 0-18.16 6.26-18.16 15.2s7 15.13 17.81 15.13a20.77 20.77 0 0 0 11.55-3.17 12.1 12.1 0 0 0-.6 3.86c0 7.34 5.68 12.33 14.51 12.33 8.61 0 14.69-5 14.69-12.33 0-.46 0-.91-.07-1.35 6.37-2.21 10.44-7.31 10.44-13.92Zm-44.61 6.28A6.53 6.53 0 0 1 43 44.46c0-4.15 2.68-7 6.62-7a6.49 6.49 0 0 1 6.61 6.83 6.7 6.7 0 0 1-6.6 6.99Zm29.76 8.82A5.47 5.47 0 0 1 74 65.84a5.32 5.32 0 0 1-5.39-5.56 7.65 7.65 0 0 1 .11-1.28 23.73 23.73 0 0 0 7.51 1.15 24.65 24.65 0 0 0 3.15-.2.92.92 0 0 1 .01.15Zm2.75-8.26A7.17 7.17 0 0 1 80 51.5a12.65 12.65 0 0 0-2.88-1.94A7 7 0 0 1 75.53 45c0-4.15 2.67-7 6.61-7a6.5 6.5 0 0 1 6.62 6.83 6.72 6.72 0 0 1-6.62 7.01ZM565.72 69.42a11.86 11.86 0 0 1-6.28-1.65l36.25-22.4-5.8-10.66s-9.83 7.47-9.95 7.47A30.37 30.37 0 0 0 558.49 34c-10.33 0-18.73 3.19-24.15 8.58l-4.29-7.87s-9.83 7.47-9.95 7.47A30.33 30.33 0 0 0 498.66 34c-9.12 0-16.72 2.48-22.11 6.76A11.81 11.81 0 0 0 465.37 34c-7.7 0-13 4.38-16.59 13.15v-12H408v-20.1l-26.3 4.73v15.41h-8.06v6.6c-5.29-5.12-13.15-8.14-22.47-8.14-18.37 0-30.57 10.54-30.57 25.59a26.21 26.21 0 0 0 .86 6.79l-13.63-17.1H320V35.19h-33.61v13.74h9L282 60.3V0h-35.06v14.45l8.17-4v41.5c-3.32-11-14.25-18.28-28.68-18.28-18.36 0-30.56 10.54-30.56 25.59a26.21 26.21 0 0 0 .86 6.79L183.1 48.93h12.2V35.19h-33.64v13.74h9L157.27 60.3V0H122.2v14.45l8.18-4v61.82h-5.69v10.78h36.49V72.27h-5.57c3.32-2.73 8.89-7.35 8.89-7.23l5.5 7.23h-3.67v10.78h38.57v-4.67c5.16 4 12.32 6.33 20.94 6.33 9.91 0 18.19-3.25 23.59-8.72v7.06h36.48V72.27h-5.56c3.31-2.73 8.88-7.35 8.88-7.23l5.45 7.23H291v10.78h38.62v-4.67c5.16 4 12.32 6.33 20.94 6.33 17.77 0 30.33-10.43 30.33-25.47a24.09 24.09 0 0 0-3.8-13.24h4.61v17.14c0 14.81 6.75 21 20.38 21 8.6 0 13.5-2.46 15.07-3.42v2.36h37.91V72.27h-6.28V53c5.92-.83 11.61 3.31 12.91 8v.12h.72a20.63 20.63 0 0 0 5.36-.69c.67 14.81 13.66 23.91 33.85 23.91 13.86 0 23.39-4.89 30.1-11.77 5.42 7.48 15.88 11.77 29.74 11.77 16.7 0 27.13-7.11 33.88-16.23l-11.49-10.18c-4.62 6.87-10.78 11.49-18.13 11.49Zm-329.93 1.31c-6.39 0-11.13-4.86-11.13-11.49 0-7 4.5-11.85 11.13-11.85 6.4 0 11.14 4.74 11.14 11.49s-4.86 11.85-11.14 11.85Zm16.63 1.54a23.22 23.22 0 0 0 2.69-5.8v5.8Zm108.11-1.54c-6.4 0-11.14-4.86-11.14-11.49 0-7 4.5-11.85 11.14-11.85 6.39 0 11.13 4.74 11.13 11.49s-4.86 11.85-11.13 11.85Zm61.71 1.54h-4.53v-1.19a9.67 9.67 0 0 1-4.5 1c-3.31 0-5.45-1.9-5.45-6.52V46h14.48Zm71.44-14.69c0-6.4 3.2-10.19 8.42-10.19a7.13 7.13 0 0 1 6.51 3.55l-14.1 10.78a9.61 9.61 0 0 1-.83-4.14Zm30.33.35c-4.62 6.87-10.78 11.49-18.12 11.49a11.83 11.83 0 0 1-6.28-1.65l30.1-18.6a23.9 23.9 0 0 0-2.14 10.07c0 .65 0 1.29.08 1.92Zm29.51-.35c0-6.4 3.2-10.19 8.41-10.19a7.15 7.15 0 0 1 6.52 3.55l-14.1 10.78a9.61 9.61 0 0 1-.83-4.14ZM596.64 31.08a5.49 5.49 0 0 1 .45-2.21 5.63 5.63 0 0 1 1.22-1.79 5.92 5.92 0 0 1 1.81-1.21 5.65 5.65 0 0 1 4.42 0 5.92 5.92 0 0 1 1.81 1.21 5.63 5.63 0 0 1 1.22 1.79 5.49 5.49 0 0 1 .45 2.21 5.36 5.36 0 0 1-.45 2.19 5.74 5.74 0 0 1-1.22 1.79 5.87 5.87 0 0 1-1.81 1.19 5.77 5.77 0 0 1-4.42 0 5.87 5.87 0 0 1-1.81-1.19 5.74 5.74 0 0 1-1.22-1.79 5.36 5.36 0 0 1-.45-2.19Zm.9 0a4.68 4.68 0 0 0 .38 1.85 4.83 4.83 0 0 0 1 1.53 4.55 4.55 0 0 0 1.52 1 4.79 4.79 0 0 0 3.74 0 4.55 4.55 0 0 0 1.52-1 5 5 0 0 0 1-1.53 4.74 4.74 0 0 0 0-3.72 4.84 4.84 0 0 0-1-1.52 4.79 4.79 0 0 0-8.18 3.39Zm2.57-3.22h2.24a4.32 4.32 0 0 1 .88.1 2.47 2.47 0 0 1 .76.33 1.7 1.7 0 0 1 .53.57 1.65 1.65 0 0 1 .2.87 1.6 1.6 0 0 1-.4 1.14 2 2 0 0 1-1.07.58l1.72 2.8h-1.39l-1.5-2.67h-.82v2.67h-1.15Zm2.07 2.8a2.56 2.56 0 0 0 1-.19.75.75 0 0 0 .45-.76.69.69 0 0 0-.42-.7 2.1 2.1 0 0 0-.86-.17h-1v1.82Z" class="e"></path></g></svg>